<svg width="1024" height="1024" viewBox="0 0 1024 1024" fill="none" xmlns="http://www.w3.org/2000/svg">
<rect width="1024" height="1024" fill="black"/>
<path d="M771.778 726.825L772 726.975L511.5 903L251 726.975L251.222 726.825V242H771.778V726.825Z" fill="#FFD349"/>
<path d="M771.777 684.656L772 684.806L511.5 860.997L251 684.806L251.223 684.656V641.648L511.5 817.688L771.777 641.648V684.656Z" fill="black"/>
<path d="M771.777 428.681L772 428.831L511.5 605.022L251 428.831L251.223 428.681V385.674L511.5 561.713L771.777 385.674V428.681Z" fill="black"/>
<path d="M771.777 599.331L772 599.481L511.5 775.672L251 599.481L251.223 599.331V556.322L511.5 732.363L771.777 556.322V599.331Z" fill="black"/>
<path d="M771.777 514.006L772 514.156L511.5 690.347L251 514.156L251.223 514.006V470.998L511.5 647.038L771.777 470.998V514.006Z" fill="black"/>
<path fill-rule="evenodd" clip-rule="evenodd" d="M660.915 186.042C674.842 186.218 683.41 176.184 678.698 165.623C673.985 155.061 669.287 152.685 661.889 145.027C654.488 137.37 643.726 124.124 643.776 121C643.831 124.124 633.512 137.37 626.11 145.027C618.713 152.685 614.018 155.061 609.302 165.623C604.589 176.184 613.161 186.218 627.084 186.042C636.644 185.921 640.946 179.745 642.701 175.884L642.701 180.938C642.701 180.938 639.649 199.164 618.11 201.16L614.676 201.16L614.676 204L673.327 204L673.327 201.16L669.89 201.16C648.355 199.164 645.299 180.938 645.299 180.938L645.299 176.548C647.366 180.413 651.886 185.928 660.915 186.042Z" fill="#FFD349"/>
<path fill-rule="evenodd" clip-rule="evenodd" d="M516 164L556.5 205L597 164L556.5 123L516 164Z" fill="#FFD349"/>
<path fill-rule="evenodd" clip-rule="evenodd" d="M400.486 123.127C385.759 123.271 382.742 139.808 382.742 139.808C382.742 139.808 379.433 123.237 364.709 122.934C349.984 122.631 340.853 135.332 345.765 148.78C350.677 162.227 355.627 165.274 363.399 175.046C371.172 184.819 382.466 201.712 382.387 205.682C382.352 201.712 393.356 184.938 401.234 175.25C409.112 165.562 414.094 162.569 419.15 149.175C424.207 135.781 415.213 122.982 400.486 123.127Z" fill="#FFD349"/>
<path fill-rule="evenodd" clip-rule="evenodd" d="M489.603 149.011C487.236 149.011 484.98 149.524 482.922 150.449C484.854 147.421 485.988 143.753 485.988 139.797C485.988 129.416 478.198 121 468.591 121C458.983 121 451.194 129.416 451.194 139.797C451.194 143.563 452.223 147.068 453.989 150.009C452.233 149.365 450.354 149.011 448.397 149.011C438.789 149.011 431 157.426 431 167.807C431 178.188 438.789 186.604 448.397 186.604C450.567 186.604 452.642 186.171 454.558 185.387C454.558 185.391 462.654 183.029 467.977 172.562V178.864C467.977 178.864 465.248 198.73 446.009 200.904H442.939V204H495.334V200.904H492.264C473.025 198.73 470.296 178.864 470.296 178.864V172.986C471.287 175.345 476.768 186.877 489.086 186.591C489.258 186.595 489.43 186.604 489.603 186.604C499.211 186.604 507 178.188 507 167.807C507 157.426 499.211 149.011 489.603 149.011Z" fill="#FFD349"/>
</svg>
